<mxfile host="app.diagrams.net" modified="2021-01-26T10:45:15.341Z" agent="5.0 (Windows NT 10.0; Win64; x64) AppleWebKit/537.36 (KHTML, like Gecko) Chrome/87.0.4280.141 Safari/537.36" etag="583CfIXafLO48ai_0pCw" version="14.1.8" type="github">
  <diagram id="_VWFgmsc36bpR6t_Q_1w" name="Page-1">
    <mxGraphModel dx="395" dy="212" grid="1" gridSize="10" guides="1" tooltips="1" connect="1" arrows="1" fold="1" page="1" pageScale="1" pageWidth="850" pageHeight="1100" math="0" shadow="0">
      <root>
        <mxCell id="0" />
        <mxCell id="1" parent="0" />
        <mxCell id="EEsalVjFLMn4Mrq5zuK--8" value="" style="ellipse;whiteSpace=wrap;html=1;aspect=fixed;fontColor=#333333;fillColor=#000000;" parent="1" vertex="1">
          <mxGeometry x="520" y="320" width="10" height="10" as="geometry" />
        </mxCell>
        <mxCell id="EEsalVjFLMn4Mrq5zuK--9" value="" style="ellipse;whiteSpace=wrap;html=1;aspect=fixed;fontColor=#333333;fillColor=#000000;" parent="1" vertex="1">
          <mxGeometry x="560" y="320" width="10" height="10" as="geometry" />
        </mxCell>
        <mxCell id="EEsalVjFLMn4Mrq5zuK--10" value="" style="endArrow=none;html=1;exitX=1;exitY=0.5;exitDx=0;exitDy=0;" parent="1" source="EEsalVjFLMn4Mrq5zuK--8" edge="1">
          <mxGeometry width="50" height="50" relative="1" as="geometry">
            <mxPoint x="510" y="330" as="sourcePoint" />
            <mxPoint x="560" y="325" as="targetPoint" />
          </mxGeometry>
        </mxCell>
        <mxCell id="EEsalVjFLMn4Mrq5zuK--11" value="" style="ellipse;whiteSpace=wrap;html=1;aspect=fixed;fontColor=#333333;fillColor=#000000;" parent="1" vertex="1">
          <mxGeometry x="490" y="290" width="10" height="10" as="geometry" />
        </mxCell>
        <mxCell id="EEsalVjFLMn4Mrq5zuK--12" value="" style="ellipse;whiteSpace=wrap;html=1;aspect=fixed;fontColor=#333333;fillColor=#000000;" parent="1" vertex="1">
          <mxGeometry x="490" y="350" width="10" height="10" as="geometry" />
        </mxCell>
        <mxCell id="EEsalVjFLMn4Mrq5zuK--13" value="" style="ellipse;whiteSpace=wrap;html=1;aspect=fixed;fontColor=#333333;fillColor=#000000;" parent="1" vertex="1">
          <mxGeometry x="590" y="288" width="10" height="10" as="geometry" />
        </mxCell>
        <mxCell id="EEsalVjFLMn4Mrq5zuK--14" value="" style="ellipse;whiteSpace=wrap;html=1;aspect=fixed;fontColor=#333333;fillColor=#000000;" parent="1" vertex="1">
          <mxGeometry x="590" y="350" width="10" height="10" as="geometry" />
        </mxCell>
        <mxCell id="EEsalVjFLMn4Mrq5zuK--15" value="" style="endArrow=none;html=1;exitX=0;exitY=0;exitDx=0;exitDy=0;entryX=1;entryY=1;entryDx=0;entryDy=0;" parent="1" source="EEsalVjFLMn4Mrq5zuK--8" target="EEsalVjFLMn4Mrq5zuK--11" edge="1">
          <mxGeometry width="50" height="50" relative="1" as="geometry">
            <mxPoint x="415" y="330" as="sourcePoint" />
            <mxPoint x="415" y="298" as="targetPoint" />
          </mxGeometry>
        </mxCell>
        <mxCell id="EEsalVjFLMn4Mrq5zuK--16" value="" style="endArrow=none;html=1;exitX=0;exitY=1;exitDx=0;exitDy=0;entryX=1;entryY=0;entryDx=0;entryDy=0;" parent="1" source="EEsalVjFLMn4Mrq5zuK--8" target="EEsalVjFLMn4Mrq5zuK--12" edge="1">
          <mxGeometry width="50" height="50" relative="1" as="geometry">
            <mxPoint x="531.4644660940672" y="331.4644660940673" as="sourcePoint" />
            <mxPoint x="508.53553390593265" y="308.5355339059327" as="targetPoint" />
          </mxGeometry>
        </mxCell>
        <mxCell id="EEsalVjFLMn4Mrq5zuK--17" value="" style="endArrow=none;html=1;exitX=1;exitY=1;exitDx=0;exitDy=0;entryX=0;entryY=0;entryDx=0;entryDy=0;" parent="1" source="EEsalVjFLMn4Mrq5zuK--9" target="EEsalVjFLMn4Mrq5zuK--14" edge="1">
          <mxGeometry width="50" height="50" relative="1" as="geometry">
            <mxPoint x="531.4644660940672" y="338.5355339059327" as="sourcePoint" />
            <mxPoint x="508.53553390593265" y="361.46446609406735" as="targetPoint" />
          </mxGeometry>
        </mxCell>
        <mxCell id="EEsalVjFLMn4Mrq5zuK--18" value="" style="endArrow=none;html=1;exitX=0;exitY=1;exitDx=0;exitDy=0;entryX=1;entryY=0;entryDx=0;entryDy=0;" parent="1" source="EEsalVjFLMn4Mrq5zuK--13" target="EEsalVjFLMn4Mrq5zuK--9" edge="1">
          <mxGeometry width="50" height="50" relative="1" as="geometry">
            <mxPoint x="578.5355339059153" y="338.53553390591526" as="sourcePoint" />
            <mxPoint x="601.4644660940672" y="361.46446609406735" as="targetPoint" />
          </mxGeometry>
        </mxCell>
        <mxCell id="EmlDVxt7mfVJfWOebyv7-1" value="" style="ellipse;whiteSpace=wrap;html=1;aspect=fixed;fontColor=#333333;fillColor=#000000;" parent="1" vertex="1">
          <mxGeometry x="630" y="288" width="10" height="10" as="geometry" />
        </mxCell>
        <mxCell id="EmlDVxt7mfVJfWOebyv7-2" value="" style="endArrow=none;html=1;exitX=1;exitY=0.5;exitDx=0;exitDy=0;entryX=0;entryY=0.5;entryDx=0;entryDy=0;" parent="1" source="EEsalVjFLMn4Mrq5zuK--13" target="EmlDVxt7mfVJfWOebyv7-1" edge="1">
          <mxGeometry width="50" height="50" relative="1" as="geometry">
            <mxPoint x="601.4644660940451" y="306.53553390595505" as="sourcePoint" />
            <mxPoint x="578.5355339059432" y="331.4644660940568" as="targetPoint" />
          </mxGeometry>
        </mxCell>
        <mxCell id="EmlDVxt7mfVJfWOebyv7-4" value="p" style="text;html=1;strokeColor=none;fillColor=none;align=center;verticalAlign=middle;whiteSpace=wrap;rounded=0;fontSize=18;" parent="1" vertex="1">
          <mxGeometry x="474" y="274" width="20" height="20" as="geometry" />
        </mxCell>
        <mxCell id="EmlDVxt7mfVJfWOebyv7-5" value="r" style="text;html=1;strokeColor=none;fillColor=none;align=center;verticalAlign=middle;whiteSpace=wrap;rounded=0;fontSize=18;" parent="1" vertex="1">
          <mxGeometry x="576" y="273" width="20" height="20" as="geometry" />
        </mxCell>
        <mxCell id="EmlDVxt7mfVJfWOebyv7-6" value="q" style="text;html=1;strokeColor=none;fillColor=none;align=center;verticalAlign=middle;whiteSpace=wrap;rounded=0;fontSize=18;" parent="1" vertex="1">
          <mxGeometry x="472" y="350" width="20" height="20" as="geometry" />
        </mxCell>
        <mxCell id="EmlDVxt7mfVJfWOebyv7-7" value="s, v" style="text;html=1;strokeColor=none;fillColor=none;align=center;verticalAlign=middle;whiteSpace=wrap;rounded=0;fontSize=18;" parent="1" vertex="1">
          <mxGeometry x="636" y="273" width="44" height="20" as="geometry" />
        </mxCell>
        <mxCell id="EmlDVxt7mfVJfWOebyv7-8" value="t" style="text;html=1;strokeColor=none;fillColor=none;align=center;verticalAlign=middle;whiteSpace=wrap;rounded=0;fontSize=18;" parent="1" vertex="1">
          <mxGeometry x="597" y="350" width="20" height="20" as="geometry" />
        </mxCell>
        <mxCell id="EmlDVxt7mfVJfWOebyv7-9" value="g" style="text;html=1;strokeColor=none;fillColor=none;align=center;verticalAlign=middle;whiteSpace=wrap;rounded=0;fontSize=12;" parent="1" vertex="1">
          <mxGeometry x="504" y="294" width="20" height="20" as="geometry" />
        </mxCell>
        <mxCell id="EmlDVxt7mfVJfWOebyv7-10" value="e" style="text;html=1;strokeColor=none;fillColor=none;align=center;verticalAlign=middle;whiteSpace=wrap;rounded=0;fontSize=12;" parent="1" vertex="1">
          <mxGeometry x="535" y="309" width="20" height="20" as="geometry" />
        </mxCell>
        <mxCell id="a2s6HkHqYqLrEqel7lJ_-1" value="u" style="text;html=1;strokeColor=none;fillColor=none;align=center;verticalAlign=middle;whiteSpace=wrap;rounded=0;fontSize=18;" vertex="1" parent="1">
          <mxGeometry x="570" y="314" width="20" height="20" as="geometry" />
        </mxCell>
      </root>
    </mxGraphModel>
  </diagram>
</mxfile>
